<svg xmlns="http://www.w3.org/2000/svg" viewBox="0 0 1170 1348" role="img" aria-labelledby="title desc">
  <title id="title">Pretty Lattice logo</title>
  <desc id="desc">A geometric hexagon logo traced from a Physical Review Letters cover motif.</desc>
  <defs>
    <style>
      .lavender { fill: #a4a7c8; }
      .green { fill: #a4d590; }
      .peach { fill: #e7b49a; }
      .cyan { fill: #a5dcd8; }
      .line {
        fill: none;
        stroke: #333333;
        stroke-width: 10;
        stroke-linecap: butt;
        stroke-linejoin: miter;
      }
    </style>
  </defs>

  <polygon class="lavender" points="585,8 1162,340 1162,1007 585,1339 8,1007 8,340" />

  <polygon class="green" points="299,176 871,176 585,341" />
  <polygon class="green" points="299,1170 871,1170 585,1005" />
  <polygon class="green" points="299,176 299,508 12,673" />
  <polygon class="green" points="299,1170 299,839 12,673" />
  <polygon class="green" points="871,176 1158,673 871,508" />
  <polygon class="green" points="871,1170 871,839 1158,673" />

  <polygon class="peach" points="299,176 585,341 299,508" />
  <polygon class="peach" points="871,176 871,508 585,341" />
  <polygon class="peach" points="12,673 299,508 299,839" />
  <polygon class="peach" points="1158,673 871,508 871,839" />
  <polygon class="peach" points="299,1170 299,839 585,1005" />
  <polygon class="peach" points="871,1170 585,1005 871,839" />

  <polygon class="cyan" points="585,341 871,508 871,839 585,1005 299,839 299,508" />

  <path class="line" d="M585 8 1162 340 1162 1007 585 1339 8 1007 8 340Z" />
  <path class="line" d="M299 176H871V1170H299Z" />
  <path class="line" d="M299 176 12 673 299 1170" />
  <path class="line" d="M871 176 1158 673 871 1170" />
  <path class="line" d="M299 176 1158 673" />
  <path class="line" d="M871 176 12 673" />
  <path class="line" d="M299 1170 1158 673" />
  <path class="line" d="M871 1170 12 673" />
</svg>
